<svg xmlns="http://www.w3.org/2000/svg" width="1920" height="1080" viewBox="0 0 1920 1080">
  <defs>
    <!-- Dark blueprint background -->
    <linearGradient id="bgGrad" x1="0%" y1="0%" x2="100%" y2="100%">
      <stop offset="0%" style="stop-color:#020912;stop-opacity:1"/>
      <stop offset="50%" style="stop-color:#050e1f;stop-opacity:1"/>
      <stop offset="100%" style="stop-color:#03080f;stop-opacity:1"/>
    </linearGradient>

    <!-- Blue glow left -->
    <radialGradient id="glowLeft" cx="25%" cy="50%" r="40%">
      <stop offset="0%" style="stop-color:#0a3a6e;stop-opacity:0.5"/>
      <stop offset="100%" style="stop-color:#000000;stop-opacity:0"/>
    </radialGradient>

    <!-- Cyan glow right -->
    <radialGradient id="glowRight" cx="78%" cy="45%" r="38%">
      <stop offset="0%" style="stop-color:#053a50;stop-opacity:0.45"/>
      <stop offset="100%" style="stop-color:#000000;stop-opacity:0"/>
    </radialGradient>

    <!-- Accent glow top center -->
    <radialGradient id="glowTop" cx="52%" cy="10%" r="35%">
      <stop offset="0%" style="stop-color:#0d2a5e;stop-opacity:0.4"/>
      <stop offset="100%" style="stop-color:#000000;stop-opacity:0"/>
    </radialGradient>

    <!-- Vignette -->
    <radialGradient id="vignette" cx="50%" cy="50%" r="72%">
      <stop offset="0%" style="stop-color:#000000;stop-opacity:0"/>
      <stop offset="100%" style="stop-color:#000000;stop-opacity:0.75"/>
    </radialGradient>

    <!-- Glow filter for bright elements -->
    <filter id="glow" x="-30%" y="-30%" width="160%" height="160%">
      <feGaussianBlur stdDeviation="3" result="blur"/>
      <feMerge><feMergeNode in="blur"/><feMergeNode in="SourceGraphic"/></feMerge>
    </filter>

    <!-- Soft glow filter -->
    <filter id="softGlow" x="-50%" y="-50%" width="200%" height="200%">
      <feGaussianBlur stdDeviation="6" result="blur"/>
      <feMerge><feMergeNode in="blur"/><feMergeNode in="SourceGraphic"/></feMerge>
    </filter>

    <!-- Blur for grid -->
    <filter id="gridBlur">
      <feGaussianBlur stdDeviation="0.3"/>
    </filter>

    <!-- Grain texture -->
    <filter id="grain">
      <feTurbulence type="fractalNoise" baseFrequency="0.65" numOctaves="4" stitchTiles="stitch"/>
      <feColorMatrix type="saturate" values="0"/>
      <feBlend in="SourceGraphic" mode="overlay"/>
      <feComposite in2="SourceGraphic" operator="in"/>
    </filter>
  </defs>

  <!-- Base -->
  <rect width="1920" height="1080" fill="url(#bgGrad)"/>
  <rect width="1920" height="1080" fill="url(#glowLeft)"/>
  <rect width="1920" height="1080" fill="url(#glowRight)"/>
  <rect width="1920" height="1080" fill="url(#glowTop)"/>

  <!-- ===== SUBTLE GRID (blueprint base) ===== -->
  <g filter="url(#gridBlur)" opacity="0.12">
    <!-- Vertical lines -->
    <line x1="120" y1="0" x2="120" y2="1080" stroke="#1a6aaa" stroke-width="0.5"/>
    <line x1="240" y1="0" x2="240" y2="1080" stroke="#1a6aaa" stroke-width="0.5"/>
    <line x1="360" y1="0" x2="360" y2="1080" stroke="#1a6aaa" stroke-width="0.5"/>
    <line x1="480" y1="0" x2="480" y2="1080" stroke="#1a6aaa" stroke-width="0.5"/>
    <line x1="600" y1="0" x2="600" y2="1080" stroke="#1a6aaa" stroke-width="0.5"/>
    <line x1="720" y1="0" x2="720" y2="1080" stroke="#1a6aaa" stroke-width="0.5"/>
    <line x1="840" y1="0" x2="840" y2="1080" stroke="#1a6aaa" stroke-width="0.5"/>
    <line x1="960" y1="0" x2="960" y2="1080" stroke="#1a6aaa" stroke-width="0.5"/>
    <line x1="1080" y1="0" x2="1080" y2="1080" stroke="#1a6aaa" stroke-width="0.5"/>
    <line x1="1200" y1="0" x2="1200" y2="1080" stroke="#1a6aaa" stroke-width="0.5"/>
    <line x1="1320" y1="0" x2="1320" y2="1080" stroke="#1a6aaa" stroke-width="0.5"/>
    <line x1="1440" y1="0" x2="1440" y2="1080" stroke="#1a6aaa" stroke-width="0.5"/>
    <line x1="1560" y1="0" x2="1560" y2="1080" stroke="#1a6aaa" stroke-width="0.5"/>
    <line x1="1680" y1="0" x2="1680" y2="1080" stroke="#1a6aaa" stroke-width="0.5"/>
    <line x1="1800" y1="0" x2="1800" y2="1080" stroke="#1a6aaa" stroke-width="0.5"/>
    <!-- Horizontal lines -->
    <line x1="0" y1="108" x2="1920" y2="108" stroke="#1a6aaa" stroke-width="0.5"/>
    <line x1="0" y1="216" x2="1920" y2="216" stroke="#1a6aaa" stroke-width="0.5"/>
    <line x1="0" y1="324" x2="1920" y2="324" stroke="#1a6aaa" stroke-width="0.5"/>
    <line x1="0" y1="432" x2="1920" y2="432" stroke="#1a6aaa" stroke-width="0.5"/>
    <line x1="0" y1="540" x2="1920" y2="540" stroke="#1a6aaa" stroke-width="0.5"/>
    <line x1="0" y1="648" x2="1920" y2="648" stroke="#1a6aaa" stroke-width="0.5"/>
    <line x1="0" y1="756" x2="1920" y2="756" stroke="#1a6aaa" stroke-width="0.5"/>
    <line x1="0" y1="864" x2="1920" y2="864" stroke="#1a6aaa" stroke-width="0.5"/>
    <line x1="0" y1="972" x2="1920" y2="972" stroke="#1a6aaa" stroke-width="0.5"/>
  </g>

  <!-- ===== LEFT SIDE: BROWSER WIREFRAME ===== -->
  <g filter="url(#glow)" opacity="0.85">
    <!-- Browser shell -->
    <rect x="80" y="160" width="680" height="480" rx="8" fill="none" stroke="#1e7abf" stroke-width="1.5"/>
    <!-- Browser top bar -->
    <rect x="80" y="160" width="680" height="44" rx="8" fill="#0d2a45" stroke="#1e7abf" stroke-width="1.5"/>
    <!-- Traffic light dots -->
    <circle cx="110" cy="182" r="7" fill="none" stroke="#1e7abf" stroke-width="1.2"/>
    <circle cx="132" cy="182" r="7" fill="none" stroke="#1e7abf" stroke-width="1.2"/>
    <circle cx="154" cy="182" r="7" fill="none" stroke="#1e7abf" stroke-width="1.2"/>
    <!-- URL bar -->
    <rect x="178" y="170" width="420" height="24" rx="4" fill="none" stroke="#1e7abf" stroke-width="1"/>
    <!-- URL text -->
    <text x="190" y="186" font-family="'Courier New', monospace" font-size="11" fill="#3ab5ff" opacity="0.7">https://your-site.si</text>

    <!-- Page content wireframe inside browser -->
    <!-- Hero block -->
    <rect x="100" y="224" width="640" height="100" rx="3" fill="#0a2038" stroke="#1e7abf" stroke-width="0.8" opacity="0.6"/>
    <!-- Fake heading lines -->
    <rect x="120" y="244" width="280" height="14" rx="2" fill="#1e7abf" opacity="0.4"/>
    <rect x="120" y="266" width="200" height="10" rx="2" fill="#1e7abf" opacity="0.25"/>
    <rect x="120" y="284" width="160" height="10" rx="2" fill="#1e7abf" opacity="0.2"/>
    <!-- CTA button wireframe -->
    <rect x="120" y="300" width="90" height="14" rx="6" fill="none" stroke="#3ab5ff" stroke-width="1.2" opacity="0.7"/>

    <!-- Nav bar inside -->
    <line x1="100" y1="224" x2="740" y2="224" stroke="#1e7abf" stroke-width="0.8" opacity="0.4"/>

    <!-- 3 column cards below hero -->
    <rect x="100" y="336" width="190" height="130" rx="3" fill="#071828" stroke="#1e7abf" stroke-width="0.8" opacity="0.5"/>
    <rect x="305" y="336" width="190" height="130" rx="3" fill="#071828" stroke="#1e7abf" stroke-width="0.8" opacity="0.5"/>
    <rect x="510" y="336" width="230" height="130" rx="3" fill="#071828" stroke="#1e7abf" stroke-width="0.8" opacity="0.5"/>

    <!-- Card image placeholders -->
    <rect x="110" y="346" width="170" height="60" rx="2" fill="#0d2a45" stroke="#1e7abf" stroke-width="0.6" opacity="0.5"/>
    <rect x="315" y="346" width="170" height="60" rx="2" fill="#0d2a45" stroke="#1e7abf" stroke-width="0.6" opacity="0.5"/>
    <rect x="520" y="346" width="210" height="60" rx="2" fill="#0d2a45" stroke="#1e7abf" stroke-width="0.6" opacity="0.5"/>

    <!-- Card text lines -->
    <rect x="110" y="416" width="110" height="8" rx="1" fill="#1e7abf" opacity="0.3"/>
    <rect x="110" y="430" width="80" height="6" rx="1" fill="#1e7abf" opacity="0.2"/>
    <rect x="315" y="416" width="110" height="8" rx="1" fill="#1e7abf" opacity="0.3"/>
    <rect x="315" y="430" width="80" height="6" rx="1" fill="#1e7abf" opacity="0.2"/>
    <rect x="520" y="416" width="110" height="8" rx="1" fill="#1e7abf" opacity="0.3"/>
    <rect x="520" y="430" width="80" height="6" rx="1" fill="#1e7abf" opacity="0.2"/>

    <!-- Footer bar -->
    <rect x="100" y="480" width="640" height="40" rx="2" fill="#061520" stroke="#1e7abf" stroke-width="0.6" opacity="0.4"/>
    <rect x="115" y="492" width="60" height="6" rx="1" fill="#1e7abf" opacity="0.2"/>
    <rect x="200" y="492" width="60" height="6" rx="1" fill="#1e7abf" opacity="0.2"/>
    <rect x="285" y="492" width="60" height="6" rx="1" fill="#1e7abf" opacity="0.2"/>
  </g>

  <!-- ===== MOBILE WIREFRAME (right of browser) ===== -->
  <g filter="url(#glow)" opacity="0.75" transform="translate(820, 240)">
    <!-- Phone shell -->
    <rect x="0" y="0" width="130" height="240" rx="16" fill="none" stroke="#1e7abf" stroke-width="1.5"/>
    <!-- Screen area -->
    <rect x="8" y="28" width="114" height="184" rx="2" fill="#061520" stroke="#1e7abf" stroke-width="0.8" opacity="0.5"/>
    <!-- Notch -->
    <rect x="42" y="6" width="46" height="10" rx="5" fill="none" stroke="#1e7abf" stroke-width="1"/>
    <!-- Home bar -->
    <rect x="44" y="220" width="42" height="4" rx="2" fill="#1e7abf" opacity="0.4"/>
    <!-- Mobile content -->
    <rect x="14" y="34" width="102" height="40" rx="2" fill="#0d2a45" opacity="0.5"/>
    <rect x="20" y="42" width="60" height="7" rx="1" fill="#1e7abf" opacity="0.4"/>
    <rect x="20" y="54" width="40" height="5" rx="1" fill="#1e7abf" opacity="0.25"/>
    <rect x="14" y="82" width="102" height="50" rx="2" fill="#071828" stroke="#1e7abf" stroke-width="0.5" opacity="0.4"/>
    <rect x="14" y="140" width="48" height="42" rx="2" fill="#071828" stroke="#1e7abf" stroke-width="0.5" opacity="0.4"/>
    <rect x="68" y="140" width="48" height="42" rx="2" fill="#071828" stroke="#1e7abf" stroke-width="0.5" opacity="0.4"/>
    <rect x="20" y="190" width="90" height="6" rx="1" fill="#1e7abf" opacity="0.2"/>
    <rect x="30" y="200" width="70" height="6" rx="1" fill="#1e7abf" opacity="0.15"/>
  </g>

  <!-- ===== RIGHT SIDE: CODE EDITOR PANEL ===== -->
  <g opacity="0.78">
    <!-- Editor window -->
    <rect x="1050" y="140" width="790" height="520" rx="8" fill="#040d1a" stroke="#1e7abf" stroke-width="1.2"/>
    <!-- Editor title bar -->
    <rect x="1050" y="140" width="790" height="36" rx="8" fill="#071828" stroke="#1e7abf" stroke-width="1.2"/>
    <circle cx="1075" cy="158" r="6" fill="none" stroke="#1e7abf" stroke-width="1"/>
    <circle cx="1095" cy="158" r="6" fill="none" stroke="#1e7abf" stroke-width="1"/>
    <circle cx="1115" cy="158" r="6" fill="none" stroke="#1e7abf" stroke-width="1"/>
    <!-- Tabs -->
    <rect x="1138" y="145" width="90" height="22" rx="3" fill="#0d2a45" stroke="#1e7abf" stroke-width="0.8"/>
    <text x="1150" y="160" font-family="'Courier New', monospace" font-size="10" fill="#3ab5ff" opacity="0.8">index.html</text>
    <rect x="1238" y="145" width="70" height="22" rx="3" fill="none" stroke="#1e7abf" stroke-width="0.6" opacity="0.4"/>
    <text x="1248" y="160" font-family="'Courier New', monospace" font-size="10" fill="#1e7abf" opacity="0.5">style.css</text>

    <!-- Line numbers column -->
    <rect x="1050" y="176" width="44" height="484" fill="#040d18" opacity="0.7"/>
    <line x1="1094" y1="176" x2="1094" y2="660" stroke="#1e7abf" stroke-width="0.5" opacity="0.3"/>

    <!-- Code lines — HTML/CSS snippets -->
    <g font-family="'Courier New', monospace" font-size="12" filter="url(#glow)">
      <!-- Line numbers -->
      <text x="1058" y="200" fill="#2a5a7a" opacity="0.6">1</text>
      <text x="1058" y="218" fill="#2a5a7a" opacity="0.6">2</text>
      <text x="1058" y="236" fill="#2a5a7a" opacity="0.6">3</text>
      <text x="1058" y="254" fill="#2a5a7a" opacity="0.6">4</text>
      <text x="1058" y="272" fill="#2a5a7a" opacity="0.6">5</text>
      <text x="1058" y="290" fill="#2a5a7a" opacity="0.6">6</text>
      <text x="1058" y="308" fill="#2a5a7a" opacity="0.6">7</text>
      <text x="1058" y="326" fill="#2a5a7a" opacity="0.6">8</text>
      <text x="1058" y="344" fill="#2a5a7a" opacity="0.6">9</text>
      <text x="1052" y="362" fill="#2a5a7a" opacity="0.6">10</text>
      <text x="1052" y="380" fill="#2a5a7a" opacity="0.6">11</text>
      <text x="1052" y="398" fill="#2a5a7a" opacity="0.6">12</text>
      <text x="1052" y="416" fill="#2a5a7a" opacity="0.6">13</text>
      <text x="1052" y="434" fill="#2a5a7a" opacity="0.6">14</text>
      <text x="1052" y="452" fill="#2a5a7a" opacity="0.6">15</text>
      <text x="1052" y="470" fill="#2a5a7a" opacity="0.6">16</text>
      <text x="1052" y="488" fill="#2a5a7a" opacity="0.6">17</text>
      <text x="1052" y="506" fill="#2a5a7a" opacity="0.6">18</text>
      <text x="1052" y="524" fill="#2a5a7a" opacity="0.6">19</text>
      <text x="1052" y="542" fill="#2a5a7a" opacity="0.6">20</text>
      <text x="1052" y="560" fill="#2a5a7a" opacity="0.6">21</text>
      <text x="1052" y="578" fill="#2a5a7a" opacity="0.6">22</text>
      <text x="1052" y="596" fill="#2a5a7a" opacity="0.6">23</text>
      <text x="1052" y="614" fill="#2a5a7a" opacity="0.6">24</text>
      <text x="1052" y="632" fill="#2a5a7a" opacity="0.6">25</text>

      <!-- Code content -->
      <text x="1106" y="200" fill="#3ab5ff" opacity="0.85">&lt;!DOCTYPE html&gt;</text>
      <text x="1106" y="218" fill="#3ab5ff" opacity="0.85">&lt;<tspan fill="#7dd3fc">html</tspan> lang=<tspan fill="#86efac">"sl"</tspan>&gt;</text>
      <text x="1106" y="236" fill="#3ab5ff" opacity="0.85">  &lt;<tspan fill="#7dd3fc">head</tspan>&gt;</text>
      <text x="1106" y="254" fill="#5a8fa0" opacity="0.7">    &lt;meta charset=<tspan fill="#86efac">"UTF-8"</tspan>/&gt;</text>
      <text x="1106" y="272" fill="#5a8fa0" opacity="0.7">    &lt;title&gt;<tspan fill="#fde68a">HD Web Design</tspan>&lt;/title&gt;</text>
      <text x="1106" y="290" fill="#3ab5ff" opacity="0.85">  &lt;/<tspan fill="#7dd3fc">head</tspan>&gt;</text>
      <text x="1106" y="308" fill="#3ab5ff" opacity="0.85">  &lt;<tspan fill="#7dd3fc">body</tspan>&gt;</text>
      <text x="1106" y="326" fill="#5a8fa0" opacity="0.7">    &lt;<tspan fill="#7dd3fc">section</tspan> class=<tspan fill="#86efac">"hero"</tspan>&gt;</text>
      <text x="1106" y="344" fill="#fde68a" opacity="0.75">      &lt;h1&gt;Web Design&lt;/h1&gt;</text>
      <text x="1106" y="362" fill="#5a8fa0" opacity="0.7">    &lt;/<tspan fill="#7dd3fc">section</tspan>&gt;</text>
      <text x="1106" y="380" fill="#5a8fa0" opacity="0.55">    </text>
      <text x="1106" y="398" fill="#a78bfa" opacity="0.75">    .hero {</text>
      <text x="1106" y="416" fill="#5a8fa0" opacity="0.7">      display: <tspan fill="#86efac">grid</tspan>;</text>
      <text x="1106" y="434" fill="#5a8fa0" opacity="0.7">      gap: <tspan fill="#fde68a">2rem</tspan>;</text>
      <text x="1106" y="452" fill="#5a8fa0" opacity="0.7">      background: <tspan fill="#86efac">#050e1f</tspan>;</text>
      <text x="1106" y="470" fill="#a78bfa" opacity="0.75">    }</text>
      <text x="1106" y="488" fill="#5a8fa0" opacity="0.55">    </text>
      <text x="1106" y="506" fill="#a78bfa" opacity="0.75">    @media (max-width: <tspan fill="#fde68a">768px</tspan>) {</text>
      <text x="1106" y="524" fill="#5a8fa0" opacity="0.7">      .hero { grid: <tspan fill="#86efac">1fr</tspan>; }</text>
      <text x="1106" y="542" fill="#a78bfa" opacity="0.75">    }</text>
      <text x="1106" y="560" fill="#5a8fa0" opacity="0.55">    </text>
      <text x="1106" y="578" fill="#3ab5ff" opacity="0.85">  &lt;/<tspan fill="#7dd3fc">body</tspan>&gt;</text>
      <text x="1106" y="596" fill="#3ab5ff" opacity="0.85">&lt;/<tspan fill="#7dd3fc">html</tspan>&gt;</text>
      <!-- Cursor blink -->
      <rect x="1106" y="606" width="8" height="14" fill="#3ab5ff" opacity="0.8"/>
    </g>
  </g>

  <!-- ===== FLOATING UI ELEMENTS ===== -->
  <!-- Performance badge top right -->
  <g filter="url(#softGlow)" opacity="0.7" transform="translate(1640, 80)">
    <rect width="220" height="44" rx="22" fill="#040d1a" stroke="#1e7abf" stroke-width="1.2"/>
    <circle cx="22" cy="22" r="10" fill="none" stroke="#3ab5ff" stroke-width="1.5"/>
    <text x="17" y="27" font-family="'Courier New', monospace" font-size="11" fill="#3ab5ff" font-weight="700">✓</text>
    <text x="42" y="27" font-family="'Courier New', monospace" font-size="11" fill="#5ab8e8">SEO Score: </text>
    <text x="122" y="27" font-family="'Courier New', monospace" font-size="11" fill="#86efac" font-weight="700">98/100</text>
  </g>

  <!-- Speed badge -->
  <g filter="url(#softGlow)" opacity="0.65" transform="translate(60, 80)">
    <rect width="210" height="44" rx="22" fill="#040d1a" stroke="#1e7abf" stroke-width="1.2"/>
    <circle cx="22" cy="22" r="10" fill="none" stroke="#fde68a" stroke-width="1.5"/>
    <text x="16" y="27" font-family="'Courier New', monospace" font-size="11" fill="#fde68a">⚡</text>
    <text x="42" y="27" font-family="'Courier New', monospace" font-size="11" fill="#5ab8e8">Load time: </text>
    <text x="118" y="27" font-family="'Courier New', monospace" font-size="11" fill="#86efac" font-weight="700">0.8s</text>
  </g>

  <!-- Mobile ready badge -->
  <g filter="url(#softGlow)" opacity="0.6" transform="translate(820, 520)">
    <rect width="200" height="44" rx="22" fill="#040d1a" stroke="#1e7abf" stroke-width="1.2"/>
    <text x="16" y="27" font-family="'Courier New', monospace" font-size="11" fill="#a78bfa">📱</text>
    <text x="42" y="27" font-family="'Courier New', monospace" font-size="11" fill="#5ab8e8">Mobile: </text>
    <text x="106" y="27" font-family="'Courier New', monospace" font-size="11" fill="#86efac" font-weight="700">Ready</text>
  </g>

  <!-- Connection arrows from browser to mobile -->
  <g opacity="0.35" stroke="#1e7abf" stroke-width="1" stroke-dasharray="5,4">
    <line x1="760" y1="360" x2="820" y2="360"/>
    <polygon points="818,355 828,360 818,365" fill="#1e7abf" opacity="0.5"/>
  </g>
  <!-- Connection from code editor to browser -->
  <g opacity="0.3" stroke="#1e7abf" stroke-width="1" stroke-dasharray="5,4">
    <line x1="1050" y1="400" x2="970" y2="400"/>
    <polygon points="972,395 962,400 972,405" fill="#1e7abf" opacity="0.5"/>
  </g>

  <!-- ===== BOTTOM DATA BAR ===== -->
  <g opacity="0.4">
    <line x1="80" y1="780" x2="1840" y2="780" stroke="#1e7abf" stroke-width="0.6" stroke-dasharray="3,6"/>
    <text x="80" y="810" font-family="'Courier New', monospace" font-size="11" fill="#2a6aaa">// Responsive</text>
    <text x="250" y="810" font-family="'Courier New', monospace" font-size="11" fill="#2a6aaa">// Fast</text>
    <text x="380" y="810" font-family="'Courier New', monospace" font-size="11" fill="#2a6aaa">// SEO-optimized</text>
    <text x="580" y="810" font-family="'Courier New', monospace" font-size="11" fill="#2a6aaa">// AI-powered</text>
    <text x="760" y="810" font-family="'Courier New', monospace" font-size="11" fill="#2a6aaa">// Custom-built</text>
    <text x="960" y="810" font-family="'Courier New', monospace" font-size="11" fill="#2a6aaa">// GEO-ready</text>
    <text x="1120" y="810" font-family="'Courier New', monospace" font-size="11" fill="#2a6aaa">// Netlify deployed</text>
    <text x="1340" y="810" font-family="'Courier New', monospace" font-size="11" fill="#2a6aaa">// Slovenija &amp; EU</text>
    <text x="1540" y="810" font-family="'Courier New', monospace" font-size="11" fill="#2a6aaa">// No-template</text>
    <text x="1700" y="810" font-family="'Courier New', monospace" font-size="11" fill="#2a6aaa">// Yours</text>
  </g>

  <!-- ===== HD monogram watermark ===== -->
  <text x="1850" y="1065" font-family="'Courier New', monospace" font-size="16" font-weight="700" fill="#1e7abf" opacity="0.15">&lt;HD&gt;</text>

  <!-- Grain overlay -->
  <rect width="1920" height="1080" opacity="0.05" filter="url(#grain)" fill="#ffffff"/>

  <!-- Vignette -->
  <rect width="1920" height="1080" fill="url(#vignette)"/>
</svg>
